<svg width="512" height="512" viewBox="0 0 512 512" fill="none" xmlns="http://www.w3.org/2000/svg">
<rect width="512" height="512" rx="100" fill="#F9F9FB"/>
<path fill-rule="evenodd" clip-rule="evenodd" d="M150.795 409.477C151.753 410.426 152.232 410.901 152.712 410.901L159.9 414.702C167.087 418.502 174.754 420.402 182.421 420.876C183.859 420.876 185.296 420.824 186.734 420.77C189.609 420.665 192.485 420.56 195.36 420.876C199.586 422.019 203.196 421.941 206.684 421.864C207.546 421.845 208.402 421.827 209.257 421.827C210.693 421.827 212.61 421.351 214.527 420.876C216.193 420.67 217.767 420.195 219.33 419.724C221.366 419.11 223.381 418.502 225.549 418.502C227.946 418.027 230.821 417.076 233.216 415.651C233.935 414.939 234.534 414.702 235.133 414.464C235.733 414.226 236.332 413.988 237.049 413.277C237.964 412.889 238.842 412.57 239.685 412.266C241.936 411.45 243.933 410.729 245.676 409.001C248.071 405.676 250.468 403.301 253.822 401.401C253.822 401.163 253.942 401.044 254.061 400.925C254.181 400.806 254.302 400.687 254.302 400.451C258.073 394.22 262.943 389.442 267.953 384.528C268.672 383.824 269.393 383.116 270.115 382.399C271.552 380.974 272.032 380.025 272.032 379.55C272.51 377.174 273.469 374.8 275.866 372.424C275.866 372.342 275.866 372.272 275.867 372.217C275.869 372.182 275.872 372.152 275.876 372.125C275.884 372.071 275.899 372.034 275.926 372.009C275.986 371.951 276.105 371.951 276.344 371.951C276.583 371.237 276.943 370.881 277.302 370.524C277.662 370.169 278.021 369.813 278.261 369.1L283.532 364.35C284.969 363.399 285.449 361.974 284.969 359.599C284.969 358.174 284.969 356.749 285.449 355.798L286.886 347.724C287.366 345.824 287.366 344.399 286.407 342.973C285.449 341.074 285.449 339.174 286.886 337.274C288.803 334.898 289.283 332.047 288.803 328.249C288.324 326.822 287.844 325.398 287.366 324.922C284.011 323.022 284.491 320.173 284.969 317.797C284.969 316.779 285.108 315.899 285.235 315.08C285.345 314.372 285.449 313.709 285.449 313.047C285.927 309.723 285.927 307.347 285.927 304.022C286.056 303.513 286.185 303.038 286.304 302.596C286.63 301.392 286.886 300.443 286.886 299.746C287.031 299.316 287.22 298.841 287.428 298.322C287.901 297.128 288.47 295.702 288.803 294.046C289.283 293.097 289.283 292.146 288.803 290.721C287.844 289.772 287.844 288.345 288.324 286.921C288.803 285.971 288.324 284.547 287.366 283.12C286.886 282.647 286.886 282.171 286.886 280.746C286.886 279.084 287.127 277.54 287.366 275.997C287.605 274.453 287.844 272.908 287.844 271.246C288.324 270.295 288.324 268.87 288.324 267.445C288.324 261.271 287.844 255.095 287.366 248.919C287.366 248.375 287.296 248.039 287.235 247.751C287.14 247.287 287.07 246.95 287.366 246.07C288.445 243.575 287.904 241.081 287.366 238.588C287.185 237.756 287.006 236.926 286.886 236.094C286.734 233.81 286.431 231.721 286.14 229.703C285.523 225.424 284.952 221.458 285.927 216.618V215.194C284.011 212.818 283.532 209.969 284.011 206.168C284.011 205.693 284.011 205.217 283.532 204.742C283.532 204.198 283.462 203.861 283.402 203.575C283.307 203.11 283.236 202.773 283.532 201.892C283.798 199.522 283.18 197.444 282.576 195.414C282.091 193.783 281.616 192.186 281.616 190.492C281.616 190.016 281.136 189.542 280.657 189.067C279.699 187.642 279.699 185.742 280.177 183.366C280.177 180.517 279.699 178.617 279.219 177.19C276.824 171.492 275.385 165.791 275.866 160.566V159.14C274.787 156.647 274.517 154.152 274.248 151.66C274.158 150.828 274.068 149.996 273.949 149.165C273.949 148.261 273.756 147.741 273.614 147.359C273.534 147.138 273.469 146.964 273.469 146.79L270.594 141.089C270.368 140.565 270.166 140.066 269.972 139.587C268.935 137.028 268.148 135.091 265.324 133.489L263.405 130.639C262.927 129.214 261.968 127.789 260.052 126.364C259.011 125.746 258.063 125.306 257.165 124.89C255.993 124.348 254.907 123.845 253.822 123.039L253.714 122.984C253.527 122.889 253.325 122.778 253.104 122.658C252.194 122.161 250.995 121.507 249.51 121.139C248.844 120.773 248.202 120.406 247.573 120.047C244.117 118.077 241.028 116.315 236.571 115.913C235.852 115.913 235.492 115.795 235.133 115.676C234.775 115.557 234.415 115.438 233.696 115.438C226.507 113.063 218.362 113.063 210.693 113.063H209.735C205.902 114.013 202.548 113.538 199.673 111.638C195.36 108.313 190.568 107.363 184.818 108.313C184.098 108.313 183.5 108.432 182.901 108.551C182.302 108.669 181.703 108.788 180.984 108.788C177.629 108.788 175.234 109.738 174.276 112.113C174.276 112.588 174.276 112.588 173.796 112.588C170.921 114.488 168.526 116.864 167.087 119.239L150.315 140.615L150.185 140.788C148.766 142.658 147.018 144.961 148.878 147.265C147.92 148.69 146.482 150.114 144.565 152.015C144.941 153.876 143.846 155.154 142.662 156.535C142.335 156.915 142.001 157.305 141.69 157.715C141.394 158.008 141.28 158.484 141.124 159.14C141.027 159.547 140.915 160.02 140.731 160.566C140.731 161.04 140.731 161.515 140.253 161.991C137.622 164.599 136.119 167.877 134.66 171.06C133.994 172.515 133.337 173.949 132.586 175.29C132.106 175.766 132.106 176.241 132.106 177.19C132.586 178.617 132.106 180.042 130.668 181.942C129.231 183.366 128.751 184.317 128.751 184.791C127.962 186.097 127.605 187.401 127.207 188.864C126.879 190.063 126.523 191.369 125.876 192.867C125.637 193.58 125.637 194.292 125.637 195.005C125.637 195.717 125.637 196.43 125.398 197.143C124.322 199.008 124.001 200.575 123.671 202.177C123.416 203.431 123.153 204.708 122.522 206.168L121.084 210.442C120.007 212.937 119.736 215.43 119.467 217.924C119.378 218.756 119.288 219.587 119.167 220.419C119.029 220.973 118.848 221.567 118.662 222.178C118.211 223.663 117.731 225.247 117.731 226.593C118.09 229.087 117.64 230.78 117.19 232.472C117.042 233.037 116.891 233.599 116.772 234.193C115.418 238.22 114.914 242.244 114.461 245.874L114.376 246.544C114.041 247.538 114.173 247.839 114.284 248.091C114.332 248.201 114.376 248.3 114.376 248.444L113.417 252.244C113.235 253.515 113.051 254.576 112.895 255.484C112.643 256.95 112.459 258.015 112.459 258.895C111.98 259.369 111.98 260.32 111.98 260.796C111.852 261.301 111.725 261.775 111.606 262.215L111.604 262.22C111.278 263.424 111.022 264.375 111.022 265.07C110.303 268.632 110.064 272.195 109.823 275.758C109.584 279.32 109.345 282.883 108.625 286.447C108.625 289.772 108.625 291.196 109.105 294.521C109.105 295.946 109.105 297.372 108.625 298.322C108.466 298.954 108.252 299.589 108.04 300.222C107.614 301.487 107.189 302.755 107.189 304.022C107.189 307.347 107.189 311.147 107.667 314.472V315.897C107.59 316.508 107.501 317.106 107.413 317.693C106.955 320.765 106.538 323.556 108.147 326.349C108.443 327.229 108.373 327.566 108.276 328.029C108.216 328.317 108.147 328.654 108.147 329.198C108.543 329.854 108.831 330.509 109.109 331.145C109.84 332.812 110.51 334.341 112.939 335.374C113.272 335.374 113.839 336.065 114.314 336.645C114.519 336.897 114.71 337.13 114.856 337.274C115.334 338.699 115.334 340.123 114.376 341.548C114.101 341.821 113.982 341.938 113.934 342.077C113.926 342.101 113.919 342.126 113.914 342.152C113.906 342.191 113.902 342.235 113.899 342.283C113.899 342.303 113.897 342.323 113.897 342.347C113.897 342.392 113.897 342.442 113.897 342.499C114.856 342.973 115.334 343.448 115.814 344.399C115.095 345.111 114.856 345.943 114.615 346.773C114.376 347.605 114.136 348.436 113.417 349.149C112.939 350.573 112.939 351.049 113.897 351.524C116.292 353.9 116.772 356.274 115.334 358.65C116.023 359.843 116.71 360.915 117.376 361.951C118.565 363.803 119.684 365.544 120.606 367.675C120.811 368.033 121.007 368.376 121.196 368.704C121.34 368.957 121.479 369.203 121.614 369.443L121.619 369.451C122.942 371.782 123.941 373.538 125.876 376.225C126.112 376.124 126.329 376.032 126.53 375.945C127.876 375.368 128.463 375.115 128.95 375.24C129.325 375.337 129.639 375.657 130.198 376.225C130.273 376.302 130.353 376.384 130.439 376.469C130.51 376.543 130.587 376.62 130.668 376.7L135.94 382.399C137.378 383.825 137.856 384.775 137.378 386.199C135.861 387.102 134.921 386.291 133.949 385.454C133.386 384.969 132.81 384.475 132.106 384.299C130.189 387.626 131.626 391.9 134.981 392.375L136.898 390.475L140.253 393.8C140.91 394.453 141.511 395.104 142.094 395.737C143.212 396.947 144.265 398.091 145.523 399.025C148.107 401.017 150.345 403.178 152.55 405.308C154.026 406.731 155.488 408.142 157.024 409.477C157.504 409.95 157.504 410.426 157.504 410.901C156.065 411.377 155.107 411.377 154.148 410.426C153.638 410.257 153.311 409.909 153.011 409.594C152.469 409.021 152.031 408.558 150.795 409.477ZM228.904 187.642C228.904 189.542 228.904 190.967 229.382 191.442C229.382 193.816 229.862 195.717 230.341 197.143L234.654 209.493C234.654 209.493 234.654 209.969 235.133 210.442C235.251 211.256 235.368 211.984 235.477 212.667C235.818 214.782 236.091 216.481 236.091 218.994C236.571 222.319 236.571 224.693 236.571 228.019L238.009 244.17V256.52C237.529 264.594 237.529 272.195 238.009 280.271C238.009 281.471 238.085 282.672 238.162 283.892C238.357 287.021 238.563 290.287 237.529 294.046C236.797 297.195 236.561 300.22 236.317 303.374C236.083 306.404 235.838 309.557 235.133 313.047C235.133 316.848 235.133 321.122 234.654 324.922C234.654 327.073 234.253 329.026 233.84 331.034C233.616 332.133 233.386 333.249 233.216 334.423C233.216 335.304 233.034 336.367 232.781 337.835L232.779 337.842C232.624 338.747 232.44 339.807 232.258 341.074L228.424 357.699C228.424 358.412 228.305 358.887 228.185 359.361C228.066 359.837 227.946 360.312 227.946 361.025C226.987 365.775 225.071 369.575 221.716 371.951C220.934 372.724 220.204 373.549 219.458 374.393C217.915 376.134 216.308 377.949 214.049 379.55C212.612 380.974 210.693 382.401 208.298 383.35C204.943 384.775 202.068 383.825 199.673 380.974C193.791 375.594 190.473 368.519 187.296 361.747L186.734 360.55C183.379 354.374 181.463 348.2 180.026 342.973C179.688 341.746 179.297 340.57 178.915 339.424C177.674 335.687 176.53 332.245 177.629 328.249C177.629 326.822 177.151 325.873 176.671 325.398C175.774 324.212 175.809 323.211 175.848 322.165C175.87 321.535 175.893 320.887 175.712 320.173C175.473 318.272 175.594 316.491 175.712 314.71C175.833 312.929 175.953 311.147 175.712 309.247C174.622 305.281 174.359 301.588 174.085 297.752C174 296.535 173.911 295.305 173.796 294.046C173.796 293.097 173.796 292.146 173.317 291.672C172.598 289.772 172.239 287.634 171.879 285.496C171.519 283.358 171.16 281.22 170.442 279.32C169.962 278.371 169.962 276.946 169.962 275.046C169.85 274.266 169.765 273.512 169.68 272.773C169.405 270.358 169.146 268.088 168.046 265.545C167.131 263.126 167.574 260.709 168.019 258.289C168.271 256.908 168.526 255.527 168.526 254.144L169.962 242.743L171.879 231.344C172.598 229.206 172.837 227.068 173.078 224.93C173.317 222.793 173.557 220.656 174.276 218.518C175.712 214.718 176.192 211.393 176.671 208.068L176.764 207.794L176.918 207.355C177.43 205.902 178.181 203.762 178.588 200.943C179.133 198.963 179.539 197.119 179.939 195.31C180.595 192.343 181.232 189.462 182.421 186.216C182.421 185.98 182.541 185.742 182.662 185.504C182.781 185.267 182.901 185.029 182.901 184.791L184.338 175.29L185.776 168.641C185.776 165.689 186.908 163.861 188.168 161.827L188.178 161.81C188.335 161.557 188.492 161.303 188.651 161.04C190.09 158.666 190.568 156.29 190.568 153.915C191.048 148.69 193.443 145.365 195.84 142.04C196.798 140.615 198.235 140.615 200.152 142.04L205.423 148.214C205.689 148.586 205.945 148.944 206.193 149.292C208.163 152.063 209.63 154.127 212.612 155.815C215.965 159.14 218.362 161.991 220.757 165.791L225.071 171.965C227.466 176.241 228.424 180.517 228.424 184.317C228.424 185.742 228.424 187.167 228.904 187.642Z" fill="#2F2F3D"/>
<path d="M400.496 324.898C400.584 325.051 400.656 325.173 400.656 325.365C400.597 325.661 400.536 325.949 400.477 326.234C400.015 328.478 399.601 330.496 399.601 333.753V335.326C400.127 336.898 400.127 337.947 399.601 339.52V346.859C399.072 349.48 399.072 351.577 399.601 353.674V354.199C398.809 356.557 398.413 358.785 398.017 361.013C397.621 363.241 397.226 365.47 396.434 367.829C396.434 368.675 396.129 368.914 395.764 369.2C395.451 369.444 395.095 369.723 394.851 370.449C393.795 371.498 393.268 372.023 393.268 372.546C393.268 374.615 392.766 376.018 392.231 377.505C391.819 378.656 391.388 379.857 391.158 381.459C391.158 383.031 390.102 384.604 388.518 386.176C387.463 386.701 386.408 387.75 385.881 389.847C385.507 390.217 385.662 390.588 385.971 391.329C386.041 391.499 386.12 391.687 386.203 391.902C386.269 392.074 386.339 392.262 386.408 392.467C384.825 395.089 382.715 396.137 381.131 396.137C380.604 396.661 379.549 396.661 379.02 396.661C377.436 397.186 376.909 397.711 376.909 397.711C375.325 399.283 374.27 399.283 373.743 398.234C373.049 398.465 372.658 398.997 372.307 399.477C371.855 400.094 371.467 400.626 370.577 400.331C369.785 400.331 369.258 400.724 368.73 401.118C368.203 401.511 367.674 401.905 366.882 401.905C363.19 401.905 360.55 401.905 358.968 402.428C357.961 402.629 357.029 402.829 356.235 402.999C354.947 403.276 354.017 403.477 353.691 403.477C352.899 403.477 352.503 403.608 352.107 403.74C351.711 403.871 351.315 404 350.525 404L342.609 400.855C341.025 399.283 339.97 397.186 339.97 395.089C339.97 392.992 339.443 390.895 338.388 388.798C338.277 388.251 338.167 387.726 338.062 387.224C337.662 385.324 337.332 383.752 337.332 382.507C335.748 376.74 335.221 371.498 334.693 365.732C334.166 365.207 334.166 364.16 334.166 363.11V359.966C332.175 354.824 331.987 349.384 331.788 343.647C331.722 341.779 331.658 339.878 331.527 337.947C331.527 336.113 331.396 334.407 331.263 332.704C331.131 331.002 331 329.295 331 327.462V317.502C331 309.638 331 302.298 331.527 294.434V286.571C331.527 280.804 331.527 276.085 332.055 270.319C332.055 264.554 332.055 260.358 332.582 254.592C332.715 252.888 332.814 251.185 332.912 249.481C333.208 244.369 333.507 239.258 334.693 234.146C334.693 232.611 334.977 230.794 335.336 228.492C335.466 227.65 335.606 226.741 335.748 225.758L337.332 216.322L338.914 204.264C338.914 203.141 339.067 202.018 339.207 200.976C339.329 200.072 339.443 199.228 339.443 198.498L341.025 185.916C341.025 184.936 340.616 184.159 340.178 183.333C339.914 182.832 339.642 182.315 339.443 181.722C338.388 180.674 337.859 179.625 337.859 178.577L339.97 177.005C340.498 176.48 341.025 175.955 341.554 175.955H342.08C343.944 173.365 345.806 173.91 347.668 174.453C348.444 174.68 349.221 174.908 349.997 174.908C350.44 175.054 350.969 175.201 351.579 175.371C353.144 175.809 355.255 176.397 357.913 177.527C360.55 178.052 363.19 178.577 366.356 180.149C366.356 180.149 366.882 180.149 367.411 180.674C370.577 182.246 372.688 184.343 374.27 186.965C375.062 188.275 375.589 189.585 376.117 190.895C376.644 192.205 377.173 193.519 377.965 194.829C375.325 198.498 375.854 199.023 380.075 200.595C380.075 201.382 380.208 202.167 380.339 202.954C380.471 203.74 380.604 204.527 380.604 205.314C380.775 205.826 380.834 206.282 380.893 206.72C381.011 207.625 381.118 208.447 382.186 209.508C382.715 210.031 382.715 211.08 382.186 212.128C382.186 213.7 382.715 214.75 383.77 214.75C384.297 215.274 384.825 216.322 384.825 216.847C386.065 219.724 386.334 221.955 386.645 224.553C386.678 224.823 386.711 225.095 386.745 225.374C386.802 225.835 386.864 226.312 386.936 226.807C387.111 227.506 387.17 228.206 387.229 228.904C387.345 230.303 387.463 231.7 388.518 233.098C389.574 235.196 390.102 237.815 390.102 240.962C391.158 244.107 391.684 247.778 391.684 251.447C392.064 252.578 391.898 253.167 391.775 253.603C391.749 253.694 391.725 253.779 391.708 253.86C391.694 253.93 391.684 253.999 391.684 254.067C391.158 256.164 391.684 258.786 392.74 261.408C392.74 262.193 392.872 262.587 393.003 262.98C393.136 263.374 393.268 263.767 393.268 264.552L394.324 270.844C395.906 275.562 396.434 279.757 396.434 284.473C396.434 285.242 396.716 286.009 397.075 286.983C397.206 287.339 397.348 287.722 397.49 288.143C398.545 290.24 399.072 292.337 398.545 293.911C398.545 294.101 398.615 294.294 398.705 294.538C398.86 294.959 399.072 295.535 399.072 296.531C399.199 297.032 399.385 297.534 399.575 298.042C400.175 299.661 400.805 301.352 399.601 303.347V304.395C401.111 306.896 400.7 308.919 400.201 311.377L400.127 311.735C400.127 313.308 400.127 314.355 400.656 314.88C400.656 315.663 400.75 316.399 400.84 317.101C401.05 318.752 401.238 320.225 400.127 321.696V323.268C400.127 324.266 400.341 324.63 400.496 324.898Z" fill="#2F2F3D"/>
<path d="M325.117 115.277C325.117 113.73 324.586 113.215 322.995 113.215C322.791 111.839 322.59 110.688 322.417 109.705V109.699C322.136 108.105 321.934 106.948 321.934 105.992C321.934 102.787 320.68 101.208 319.284 99.4505L319.277 99.4409C319.103 99.2213 318.927 98.9987 318.751 98.77C318.219 97.7382 317.69 96.7064 318.219 96.1906C318.751 95.6746 319.812 95.6746 320.873 96.1906C321.934 97.2222 323.525 97.2222 325.117 96.7064C326.178 96.7064 326.708 96.1906 326.708 95.6746C327.034 94.4081 327.96 93.919 328.993 93.3723C329.645 93.0281 330.337 92.6612 330.952 92.0634C331.484 92.0634 332.013 92.0634 332.013 91.5476C332.711 91.3214 333.104 90.996 333.458 90.702C333.911 90.3253 334.304 90 335.196 90C335.974 90 337.035 90.2763 338.38 90.6269L338.63 90.6918C338.815 90.7402 339.007 90.7896 339.204 90.8398C339.452 90.9031 339.707 90.9674 339.972 91.0316C339.972 91.8056 340.105 92.1925 340.237 92.5794C340.37 92.9663 340.502 93.3532 340.502 94.127C341.298 93.3532 341.563 92.8374 341.829 92.3214C342.094 91.8056 342.359 91.2896 343.155 90.5158C343.879 90.9387 344.644 91.3232 345.416 91.7112C347.468 92.743 349.572 93.8001 351.114 95.6746C351.114 95.6746 351.644 96.1904 353.236 96.7064L356.42 98.254C356.949 98.7698 356.949 99.2858 356.949 100.318C356.42 102.897 357.481 104.96 359.071 106.508C360.958 109.077 362.308 111.906 363.695 114.812C364.256 115.99 364.827 117.183 365.438 118.373L367.03 123.532C367.56 125.081 368.091 125.595 368.621 126.111C370.214 128.175 370.214 130.755 369.682 133.333C369.152 136.946 368.091 139.009 367.03 140.557C367.03 142.348 366.23 143.362 364.977 144.949C364.786 145.191 364.586 145.444 364.377 145.715C363.847 146.231 363.847 147.778 363.847 149.842C363.582 149.842 363.316 149.713 362.917 149.52C362.521 149.326 361.99 149.067 361.194 148.811C359.603 149.842 358.542 151.389 358.01 152.936C357.481 154.485 356.42 155 354.827 155C354.297 155 353.766 155 353.236 154.485C351.153 153.271 349.072 153.644 346.476 154.111C345.765 154.24 345.015 154.375 344.216 154.485C343.155 154.485 342.094 153.969 341.563 153.453L339.441 151.906C337.319 150.875 335.728 149.326 334.135 147.778L332.545 146.231C332.013 144.684 331.484 144.167 330.952 143.651C330.422 142.104 329.361 141.071 328.83 140.557C328.83 140.298 328.698 140.04 328.565 139.782C328.432 139.524 328.3 139.266 328.3 139.009C329.393 137.946 328.986 137.371 328.45 136.613C328.206 136.268 327.936 135.884 327.769 135.397C327.239 133.85 327.239 132.302 327.769 131.786C328.3 130.239 327.769 129.206 325.647 129.206C324.056 129.206 323.525 128.691 324.586 127.659C325.234 127.03 325.706 126.741 326.073 126.517C326.61 126.19 326.925 125.997 327.239 125.081C327.769 125.081 328.3 124.564 328.3 124.048C328.3 123.017 327.769 122.501 327.239 122.501C326.856 122.288 326.512 122.102 326.206 121.937C324.975 121.272 324.341 120.932 324.162 120.437C323.973 119.919 324.278 119.233 324.902 117.826L325.117 117.341C324.321 117.084 324.056 116.826 323.789 116.568C323.525 116.31 323.26 116.052 322.464 115.793C323.26 115.793 323.525 115.664 323.789 115.535C324.056 115.406 324.321 115.277 325.117 115.277Z" fill="#2F2F3D"/>
</svg>
