<svg width="256" height="256" viewBox="0 0 256 256" fill="none" xmlns="http://www.w3.org/2000/svg">
<path fill-rule="evenodd" clip-rule="evenodd" d="M70.0405 40C75.0494 44.2358 79.1302 47.9346 84.1054 53.5536C82.8422 55.2526 82.4341 55.8514 80.4903 58.8147C99.3719 46.9608 137.609 42.0436 144.89 45.2814C152.171 48.5192 170.097 72.0287 167.887 81.0201C168.181 81.7926 167.135 84.1909 165.354 89.5808C143.57 151.421 71.4683 197.869 52.4437 206.362C48.3971 207.682 48.2249 207.771 44.7709 207.771C41.3867 207.771 28.5329 199.401 23.3898 192.691C22.3988 191.547 21.5005 189.986 20.9882 188.575C9.76565 154.204 30.464 110.25 32.1094 106.71C28.0707 108.156 20.9081 111.947 16.0255 115.85C15.9161 109.436 16.1498 104.978 16.8969 99.3623C30.8153 87.6962 42.5646 78.715 46.4141 76.2116C50.6328 68.6687 60.9674 50.5454 70.0405 40ZM66.9608 90.8754C63.0238 92.8716 37.7477 140.2 40.0763 182.469C58.0953 175.56 123.386 126.787 144.064 71.0649C135.09 69.813 98.8675 73.8796 66.9608 90.8754Z" fill="black"/>
<path fill-rule="evenodd" clip-rule="evenodd" d="M192.219 108.437C201.784 115.507 210.859 123.267 217.89 131.095C204.213 151.76 196.518 177.385 188.032 208C181.626 204.214 171.398 195.807 167.848 190.796C171.696 166.814 182.939 129.403 192.219 108.437ZM216.398 40.2253C224.868 47.5272 232.899 55.8428 240 64.1473C231.792 74.4204 225.21 84.77 217.651 98.3371C209.979 94.4096 201.291 88.309 195.437 82.1507C200.423 66.9348 207.243 52.8229 216.398 40.2253Z" fill="black"/>
</svg>
