<svg width="256" height="256" viewBox="0 0 256 256" fill="none" xmlns="http://www.w3.org/2000/svg">
<path d="M0 43C0 19.2518 19.2518 0 43 0H213C236.748 0 256 19.2518 256 43V213C256 236.748 236.748 256 213 256H43C19.2518 256 0 236.748 0 213V43Z" fill="white"/>
<path d="M83 37L132.101 37L171.244 107.87C176.023 116.523 170.56 127.26 160.74 128.515L134.086 131.921C129.131 132.554 126.408 138.008 128.887 142.337L172.785 219H123.684L84.9892 151.424C80.0315 142.766 85.4761 131.858 95.3879 130.591L111.639 128.515C121.459 127.26 126.922 116.523 122.143 107.87L83 37Z" fill="#1F3A93"/>
</svg>
